# xmcd
#
# Track frame offsets:
#	150
#	17988
#	33652
#	49432
#	63427
#	84969
#	101788
#	114399
#	127416
#	142800
#	158025
#	176718
#	191014
#
# Disc length: 2720 seconds
#
# Revision: 1
# Processed by: cddbd v1.5.1PL0 Copyright (c) Steve Scherf et al.
# Submitted via: EasyCDDAExtractor 6.5.7.1
#
DISCID=ba0a9e0d
DTITLE=Tchê Maneiros - Vem
DYEAR=2004
DGENRE=Gaúchas
TTITLE0=Vem Pra Mim
TTITLE1=Galpão Do Tio Orácio
TTITLE2=Na Beira Do Mar
TTITLE3=Vivendo Por Viver
TTITLE4=Não Faz Assim
TTITLE5=Prenda
TTITLE6=Que Saudade
TTITLE7=Toque De Gaiteiro
TTITLE8=Moda Da Vanera
TTITLE9=Vem Vaneirar
TTITLE10=Suas Flores
TTITLE11=Araranguá-SC
TTITLE12=Gauchinho Cumilhão
EXTD=
EXTT0=
EXTT1=
EXTT2=
EXTT3=
EXTT4=
EXTT5=
EXTT6=
EXTT7=
EXTT8=
EXTT9=
EXTT10=
EXTT11=
EXTT12=
PLAYORDER=
